<?xml version="1.0" encoding="UTF-8"?>
<svg width="96px" height="159px" viewBox="0 0 96 159" version="1.1" xmlns="http://www.w3.org/2000/svg" xmlns:xlink="http://www.w3.org/1999/xlink">
    <!-- Generator: Sketch 47.1 (45422) - http://www.bohemiancoding.com/sketch -->
    <title>Group</title>
    <desc>Created with Sketch.</desc>
    <defs></defs>
    <g id="Page-1" stroke="none" stroke-width="1" fill="none" fill-rule="evenodd">
        <g id="Group" fill="#FFFFFF">
            <path d="M51.5090586,38.328809 C51.7343919,38.3541423 51.9610586,38.3754757 52.1863919,38.4061423 L52.1863919,38.476809 C68.6823915,40.516809 81.5343912,54.3074753 82.0997245,71.2141415 L82.0477245,101.738141 L55.2437252,101.738141 L55.2437252,94.7448076 L74.8277247,94.7448076 L74.8277247,70.2781416 L74.837058,70.2781416 C73.8583914,57.5501419 64.039725,47.2981421 51.5090586,45.6474755 L51.5090586,45.6021422 C50.290392,45.4328088 49.0477253,45.3408088 47.7837254,45.3408088 C46.6757254,45.3408088 45.5837254,45.4128088 44.5103921,45.5448088 L44.5103921,32.3794758 C23.8970593,34.0981425 7.70239303,51.3608087 7.69172637,72.4114748 L0.491726546,72.4114748 C0.502393212,47.3848088 19.9170594,26.895476 44.5103921,25.159476 L44.5103921,7.93947644 L35.1023923,7.93947644 L35.1023923,0.946143285 L60.9170584,0.946143285 L60.9170584,7.93947644 L51.5090586,7.93947644 L51.5090586,38.328809 Z M84.8597244,151.279473 L85.9663911,151.279473 L85.1837244,150.496806 C84.6463911,149.959473 84.6463911,149.088806 85.1837244,148.551473 C85.7210577,148.01414 86.5930577,148.01414 87.130391,148.551473 L87.9130577,149.331473 L87.9130577,148.227473 C87.9130577,147.467473 88.5290577,146.852806 89.2890577,146.852806 C90.0490576,146.852806 90.6650576,147.467473 90.6650576,148.227473 L90.6650576,149.332806 L91.4477243,148.551473 C91.9850576,148.01414 92.8583909,148.01414 93.3957242,148.551473 C93.9330575,149.088806 93.9330575,149.960806 93.3957242,150.49814 L92.6143909,151.279473 L93.7183909,151.279473 C94.4797242,151.279473 95.0943908,151.895473 95.0943908,152.655473 C95.0943908,153.415473 94.4797242,154.031473 93.7183909,154.031473 L92.6130576,154.031473 L93.3957242,154.812806 C93.9330575,155.351473 93.9330575,156.222139 93.3957242,156.759473 C92.8583909,157.296806 91.9850576,157.296806 91.4477243,156.759473 L90.6650576,155.976806 L90.6650576,157.083473 C90.6650576,157.844806 90.0490576,158.460806 89.2890577,158.460806 C88.5290577,158.460806 87.9130577,157.844806 87.9130577,157.083473 L87.9130577,155.978139 L87.130391,156.760806 C86.5917244,157.298139 85.7210577,157.298139 85.1837244,156.760806 C84.6463911,156.222139 84.6463911,155.351473 85.1837244,154.814139 L85.9663911,154.031473 L84.8597244,154.031473 C84.0983911,154.031473 83.4810578,153.415473 83.4810578,152.655473 C83.4810578,151.895473 84.0983911,151.279473 84.8597244,151.279473 L84.8597244,151.279473 Z M37.513059,39.8434756 L37.513059,47.5101421 C28.1410592,51.4474754 21.4623927,60.5234751 21.0090594,71.2141415 L20.9290594,71.2141415 L20.9290594,87.7514744 L13.7823929,87.7514744 L13.7823929,70.8008082 L13.8237262,70.8008082 C14.4837262,56.2661419 24.227726,44.1008089 37.513059,39.8434756 L37.513059,39.8434756 Z M88.102391,72.4114748 C88.0930577,53.8928086 75.557058,38.304809 58.5063918,33.6528091 L58.5063918,26.231476 C79.5730579,31.0461425 95.2930575,49.8928087 95.3023908,72.4114748 L88.102391,72.4114748 Z M40.5170589,87.7514744 L27.6383925,87.7514744 L27.6383925,80.7581413 L40.5170589,80.7581413 L40.5170589,87.7514744 Z M40.5503922,101.738141 L20.9290594,101.738141 L20.9290594,108.692807 L40.5503922,108.692807 L40.5503922,115.68614 L20.9290594,115.68614 L20.9290594,124.58614 L20.9863927,124.58614 C21.1943927,139.299473 33.1863924,151.16214 47.9530587,151.16214 C62.307725,151.16214 74.0383914,139.95014 74.8703914,125.808807 L74.8277247,125.808807 L74.8277247,115.68614 L55.2437252,115.68614 L55.2437252,108.692807 L79.0490579,108.692807 L79.0490579,108.731474 L82.0650578,108.731474 L82.1050578,125.808807 L82.0797245,125.808807 C81.2383912,143.927473 66.2837249,158.359473 47.9530587,158.359473 C29.7997258,158.359473 14.9557262,144.208806 13.8517262,126.339473 L13.7823929,126.339473 L13.7823929,94.7448076 L40.5503922,94.7448076 L40.5503922,101.738141 Z M67.9877249,87.7514744 L55.2423918,87.7514744 L55.2423918,80.7581413 L67.9877249,80.7581413 L67.9877249,87.7514744 Z" id="path38" transform="translate(47.897059, 79.703475) scale(-1, 1) rotate(-180.000000) translate(-47.897059, -79.703475) "></path>
        </g>
    </g>
</svg>